<svg xmlns="http://www.w3.org/2000/svg" width="768" height="768" viewBox="0 0 768 768" version="1.1"><path d="M 193.213 335.445 C 187.252 338.146, 187 339.896, 187 378.518 C 187 407.242, 187.253 413.589, 188.494 415.989 C 191.103 421.034, 193.528 422, 203.576 422 C 211.883 422, 212.947 421.779, 215.354 419.548 C 216.885 418.129, 217.943 416.128, 217.864 414.798 L 217.728 412.500 217.297 414.730 C 216.414 419.301, 212.531 421, 202.969 421 L 194.207 421 191.104 417.465 L 188 413.930 188 397.837 L 188 381.744 192.187 382.414 C 198.570 383.435, 202.096 385.499, 210.124 392.915 L 217.484 399.715 218.089 406.107 L 218.695 412.500 218.848 406.578 L 219 400.655 229.101 411.078 L 239.201 421.500 230.101 411.510 L 221 401.520 220.771 379.510 L 220.543 357.500 220.251 378.250 C 220.052 392.382, 219.612 399, 218.869 399 C 218.270 399, 214.231 395.662, 209.893 391.582 C 203.963 386.003, 200.705 383.741, 196.754 382.459 C 193.864 381.521, 191.145 380.432, 190.712 380.039 C 190.279 379.646, 192.079 377.376, 194.712 374.995 C 197.345 372.614, 203.662 366.664, 208.750 361.773 L 218 352.881 217.811 347.191 L 217.622 341.500 217.265 347.101 C 216.922 352.505, 216.691 352.909, 210.705 358.590 C 207.292 361.829, 200.752 368.083, 196.172 372.489 L 187.844 380.500 188.172 360.771 L 188.500 341.041 191.274 338.271 C 193.898 335.650, 194.539 335.500, 203.114 335.504 C 211.803 335.508, 212.281 335.625, 214.590 338.310 C 215.916 339.851, 217 340.715, 217 340.230 C 217 339.745, 215.880 338.296, 214.510 337.010 C 212.435 335.060, 210.727 334.611, 204.260 334.313 C 198.861 334.064, 195.500 334.409, 193.213 335.445 M 231.667 344.239 C 226.809 349.333, 222.374 354.400, 221.813 355.500 C 221.251 356.600, 222.973 355.025, 225.638 352 C 228.303 348.975, 232.782 344.137, 235.591 341.250 L 240.697 336 261.543 336 L 282.389 336 270.945 347.746 C 264.650 354.206, 259.275 359.735, 259 360.033 C 258.725 360.330, 254.514 364.665, 249.641 369.666 L 240.783 378.758 261.402 399.629 L 282.021 420.500 260.760 421.010 L 239.500 421.520 261 422.010 C 272.825 422.280, 282.842 422.248, 283.260 421.940 C 283.679 421.631, 274.611 411.766, 263.110 400.017 L 242.200 378.656 261.701 358.328 C 272.427 347.148, 281.607 338, 282.102 338 C 282.596 338, 283 337.325, 283 336.500 C 283 335.214, 279.967 334.998, 261.750 334.989 L 240.500 334.978 231.667 344.239 M 527.667 346.667 C 527.300 347.033, 527 359.625, 527 374.648 L 527 401.962 529.513 402.593 C 534.098 403.743, 534.519 402.335, 534.370 386.332 C 534.294 378.174, 534.180 365.762, 534.116 358.750 L 534 346 531.167 346 C 529.608 346, 528.033 346.300, 527.667 346.667 M 528 374.031 C 528 397.137, 528.218 401.146, 529.500 401.638 C 533.386 403.130, 533.510 402.212, 533.219 374.128 L 532.937 347 530.469 347 L 528 347 528 374.031 M 308.644 349.766 C 308.384 350.188, 308.047 362, 307.896 376.016 L 307.621 401.500 311.560 401.500 L 315.500 401.500 316 392.350 C 316.389 385.234, 316.924 382.733, 318.405 381.100 C 321.661 377.511, 321.703 377.546, 332.587 392.750 L 339.208 402 343.604 402 C 346.765 402, 348 401.595, 348 400.559 C 348 399.766, 347.580 398.859, 347.068 398.542 C 345.391 397.506, 328 373.921, 328.008 372.695 C 328.012 372.038, 332.287 366.927, 337.508 361.339 C 342.728 355.750, 347 350.688, 347 350.089 C 347 349.469, 345.168 349.014, 342.750 349.034 C 338.628 349.066, 338.161 349.428, 327.250 361.015 L 316 372.963 316 362.563 C 316 356.843, 315.727 351.452, 315.393 350.582 C 314.772 348.964, 309.532 348.331, 308.644 349.766 M 340.331 350.695 C 339.137 350.928, 333.132 356.491, 326.986 363.059 C 320.840 369.627, 315.516 375.001, 315.155 375.002 C 314.795 375.003, 314.639 369.603, 314.809 363.002 L 315.118 351 312.059 351 L 309 351 309 376 L 309 401 312 401 L 315 401 315 392.485 C 315 384.250, 315.108 383.853, 318.294 380.377 L 321.588 376.782 329.044 386.530 C 340.672 401.732, 340.127 401.203, 343.770 400.831 L 347.005 400.500 339.868 391 C 335.943 385.775, 332.454 381.275, 332.115 381 C 331.505 380.504, 328.015 375.583, 326.672 373.324 C 326.077 372.321, 332.531 364.779, 343.689 353.437 C 346.736 350.341, 345.852 349.619, 340.331 350.695 M 514 363.709 C 513.175 364.013, 511.712 364.947, 510.750 365.785 C 509.176 367.157, 508.807 367.136, 507.082 365.575 C 506.028 364.620, 504.115 363.988, 502.832 364.170 L 500.500 364.500 500.228 383.250 L 499.956 402 503.357 402 L 506.759 402 507.236 389.750 C 507.498 383.012, 508.034 376.754, 508.428 375.842 C 509.247 373.944, 513.121 372.214, 517.500 371.790 C 520.161 371.533, 520.534 371.091, 520.803 367.880 C 521.058 364.820, 520.749 364.165, 518.803 363.644 C 516.201 362.947, 516.068 362.949, 514 363.709 M 358.500 365.213 C 356.850 365.794, 354.938 366.713, 354.250 367.257 C 352.733 368.456, 352.607 371.639, 354.040 372.525 C 354.709 372.938, 354.859 372.288, 354.462 370.704 C 353.904 368.482, 354.308 368.083, 358.600 366.621 C 368.136 363.371, 375.974 365.299, 378.579 371.534 C 379.560 373.884, 380 378.967, 380 387.968 L 380 401 377.500 401 C 375.637 401, 375 400.472, 375 398.927 L 375 396.855 372.365 398.927 C 370.916 400.067, 368.778 401.052, 367.615 401.116 C 366.005 401.204, 365.905 401.339, 367.198 401.679 C 368.131 401.925, 369.848 401.617, 371.012 400.994 C 372.590 400.149, 373.477 400.151, 374.503 401.003 C 375.260 401.631, 377.084 401.999, 378.556 401.822 L 381.234 401.500 381.066 388.144 C 380.869 372.369, 379.598 367.986, 374.521 365.577 C 370.780 363.802, 363.013 363.626, 358.500 365.213 M 392.444 365.285 C 392.173 365.992, 392.074 374.429, 392.225 384.035 L 392.500 401.500 395.500 401.593 C 398.330 401.681, 398.345 401.663, 395.750 401.280 L 393 400.873 393 383.553 C 393 366.772, 393.066 366.216, 395.111 365.681 C 396.635 365.283, 397.362 365.667, 397.727 367.065 C 398.348 369.437, 398.187 369.440, 402.739 367 C 404.791 365.900, 407.715 365, 409.235 365 C 411.457 365, 412 365.454, 412 367.311 C 412 369.249, 411.187 369.830, 406.955 370.915 C 399.507 372.824, 398.538 374.851, 398.335 388.955 L 398.168 400.500 399.096 388.500 C 399.948 377.485, 400.233 376.315, 402.568 374.250 C 403.967 373.012, 406.175 372, 407.474 372 C 411.759 372, 413 370.965, 413 367.393 C 413 364.165, 412.825 364, 409.404 364 C 407.427 364, 404.471 364.788, 402.837 365.750 C 400.007 367.417, 399.819 367.417, 398.883 365.750 C 397.745 363.722, 393.171 363.392, 392.444 365.285 M 426.500 365.417 C 422.773 367.081, 418.469 371.596, 417.064 375.315 C 414.152 383.022, 416.939 395.266, 422.526 399.305 C 428.775 403.824, 440.694 403.650, 446.155 398.961 C 448.284 397.133, 448.086 397.155, 444 399.206 C 434.561 403.944, 423.864 401.458, 419.211 393.444 C 415.881 387.709, 416.411 377.900, 420.360 372.203 C 429.285 359.324, 450 365.031, 450 380.368 L 450 385 436.500 385 L 423 385 423 387.600 C 423 391.670, 428.915 397, 433.432 397 C 437.216 397, 444.723 394.389, 443.746 393.413 C 443.438 393.105, 441.816 393.561, 440.143 394.426 C 436.543 396.288, 431.136 396.429, 428.925 394.718 C 426.435 392.792, 423.765 388.190, 424.473 387.044 C 424.867 386.406, 430.129 386, 438 386 C 445.085 386, 451.131 385.597, 451.436 385.103 C 452.508 383.369, 450.686 374.829, 448.575 371.698 C 444.072 365.015, 433.890 362.119, 426.500 365.417 M 465.999 365.940 C 464.073 366.959, 461.723 368.649, 460.775 369.696 C 457.065 373.795, 454.913 384.413, 456.820 389.210 C 457.194 390.150, 457.532 387.900, 457.572 384.210 C 457.653 376.629, 459.320 372.592, 463.994 368.659 C 467.520 365.692, 472.502 364.498, 477.806 365.350 C 480.348 365.758, 481.032 365.645, 480 364.987 C 477.546 363.422, 469.756 363.953, 465.999 365.940 M 541.530 364.952 C 540.698 366.298, 547.645 385.021, 553.748 397.882 C 555.279 401.109, 555.247 401.471, 553.053 405.606 C 551.787 407.992, 550.020 410.140, 549.126 410.379 C 548.232 410.618, 546.263 411.090, 544.750 411.426 C 541.984 412.042, 541.289 413.984, 542.607 417.418 C 543.456 419.631, 548.785 419.429, 552.710 417.035 C 556.907 414.477, 560.775 406.848, 573.159 376.709 C 577.548 366.030, 577.566 363.687, 573.256 364.183 C 570.165 364.539, 567.810 368.500, 563.092 381.280 C 559.166 391.917, 558.106 391.460, 552.715 376.800 C 548.392 365.045, 548.059 364.486, 545.190 364.194 C 543.539 364.025, 541.892 364.367, 541.530 364.952 M 511.250 366.648 C 509.462 367.529, 508 368.644, 508 369.125 C 508 369.606, 507.520 370, 506.933 370 C 506.320 370, 506.136 369.147, 506.500 368 C 507.041 366.297, 506.680 366, 504.067 366 L 501 366 501 383.500 L 501 401 503.500 401 C 505.995 401, 506 400.982, 506.006 391.250 C 506.015 375.456, 508.263 371, 516.223 371 C 519.753 371, 520 370.804, 520 368 C 520 365.388, 519.644 365.003, 517.250 365.023 C 515.737 365.035, 513.038 365.767, 511.250 366.648 M 484.784 368.750 C 488.005 371.511, 491 378.197, 491 382.626 L 491 385 477 385 C 468.043 385, 463 385.372, 463 386.032 C 463 386.600, 463.620 388.547, 464.377 390.360 C 466.900 396.399, 476.404 398.880, 482.583 395.113 C 485.631 393.254, 489 393.753, 489 396.064 C 489 397.881, 482.634 400.902, 477.437 401.551 C 471.067 402.347, 464.790 399.916, 460.717 395.075 C 459.223 393.300, 458 392.246, 458 392.733 C 458 394.356, 464.453 400.276, 467.718 401.648 C 473.639 404.136, 483.488 402.583, 488.066 398.440 C 490.590 396.156, 490.507 395.378, 487.529 393.427 C 485.209 391.907, 484.897 391.936, 482.395 393.904 C 476.997 398.150, 465.500 394.785, 465.500 388.960 L 465.500 386.500 478.500 386 C 491.384 385.504, 491.503 385.478, 491.847 383.044 C 492.037 381.693, 491.679 378.873, 491.051 376.777 C 489.856 372.786, 484.587 366, 482.684 366 C 482.074 366, 483.019 367.238, 484.784 368.750 M 542.484 367.750 C 542.868 368.712, 544.466 372.950, 546.035 377.166 C 547.604 381.382, 550.554 388.476, 552.589 392.930 L 556.291 401.028 554.461 405.087 C 552.315 409.846, 548.690 413, 545.365 413 C 543.654 413, 543 413.562, 543 415.031 C 543 417.797, 545.390 418.499, 550.052 417.102 C 555.020 415.614, 556.738 412.732, 566.927 388.791 C 577.159 364.749, 576.814 366, 573.202 366 C 570.354 366, 570.114 366.405, 564.894 380 C 561.937 387.700, 559.235 394, 558.889 394 C 558.544 394, 555.840 387.703, 552.880 380.007 C 547.704 366.543, 547.392 366.013, 544.643 366.007 C 542.322 366.001, 541.917 366.328, 542.484 367.750 M 359 371.605 C 357.272 372.664, 357.118 372.936, 358.500 372.484 C 366.038 370.019, 371.122 370.777, 372.876 374.628 C 374.573 378.352, 373.399 379.129, 364.798 379.971 C 360.755 380.367, 356.408 381.246, 355.139 381.926 C 352.741 383.209, 349.943 388.621, 350.077 391.718 C 350.119 392.698, 350.683 391.748, 351.329 389.606 C 353.140 383.608, 356.654 381.590, 366.317 381 L 374.500 380.500 374.328 377.022 C 374.218 374.800, 373.365 372.904, 371.967 371.772 C 369.257 369.578, 362.447 369.490, 359 371.605 M 426.535 373.104 C 424.335 375.035, 423 377.112, 423 378.604 C 423 380.987, 423.060 381, 434 381 C 446.106 381, 446.480 380.763, 443.490 374.980 C 440.363 368.934, 432.300 368.042, 426.535 373.104 M 468.763 371.565 C 466.193 372.959, 463 377.606, 463 379.950 C 463 380.620, 466.986 381, 474 381 C 483.268 381, 485 380.756, 485 379.450 C 485 376.993, 482.160 372.156, 480.055 371.030 C 477.327 369.569, 471.973 369.823, 468.763 371.565 M 427.637 373.250 C 426.275 374.488, 424.865 376.529, 424.502 377.787 C 423.842 380.073, 423.849 380.074, 433.671 379.787 C 442.869 379.518, 443.478 379.372, 443.163 377.500 C 442.511 373.623, 438.967 371, 434.381 371 C 431.353 371, 429.392 371.654, 427.637 373.250 M 468.973 372.692 C 465.904 374.792, 465.035 376.012, 465.015 378.250 C 465.002 379.787, 466.087 380, 473.941 380 C 478.859 380, 483.110 379.630, 483.390 379.178 C 484.010 378.175, 481.338 372.835, 479.691 371.788 C 477.574 370.442, 471.513 370.953, 468.973 372.692 M 361.400 385.404 C 353.826 388.759, 356.224 397, 364.773 397 C 370.337 397, 373.780 393.893, 374.193 388.500 L 374.500 384.500 369.500 384.266 C 366.750 384.137, 363.105 384.649, 361.400 385.404 M 363.259 385.705 C 360.962 386.148, 358 389.497, 358 391.651 C 358 394.043, 361.182 396, 365.071 396 C 370.120 396, 373 393.275, 373 388.500 C 373 385.098, 372.895 385.004, 369.250 385.136 C 367.188 385.211, 364.491 385.467, 363.259 385.705 M 351.063 394.785 C 350.862 398.862, 357.102 403.135, 362.899 402.890 C 364.609 402.818, 363.996 402.486, 361.110 401.919 C 356.456 401.005, 353.291 398.788, 351.945 395.500 C 351.495 394.400, 351.098 394.078, 351.063 394.785" stroke="none" fill="#9aacce" fill-rule="evenodd"/><path d="M 195.374 335.627 C 194.205 335.891, 192.180 337.243, 190.874 338.632 C 188.568 341.085, 188.491 341.717, 188.172 360.828 L 187.844 380.500 196.172 372.489 C 200.752 368.083, 207.313 361.809, 210.750 358.546 L 217 352.614 217 346.863 C 217 342.340, 216.519 340.553, 214.750 338.497 C 212.767 336.193, 211.610 335.839, 205 335.515 C 200.875 335.312, 196.543 335.363, 195.374 335.627 M 236.528 340.250 C 234.179 342.587, 229.724 347.422, 226.628 350.993 L 221 357.485 221 379.525 L 221 401.564 230.250 411.340 L 239.500 421.115 260.759 420.808 L 282.019 420.500 261.401 399.629 L 240.783 378.758 249.641 369.666 C 254.514 364.665, 258.725 360.330, 259 360.033 C 259.275 359.735, 264.650 354.206, 270.945 347.746 L 282.389 336 261.594 336 L 240.799 336 236.528 340.250 M 528 374.031 C 528 397.137, 528.218 401.146, 529.500 401.638 C 533.386 403.130, 533.510 402.212, 533.219 374.128 L 532.937 347 530.469 347 L 528 347 528 374.031 M 340.331 350.695 C 339.137 350.928, 333.132 356.491, 326.986 363.059 C 320.840 369.627, 315.516 375.001, 315.155 375.002 C 314.795 375.003, 314.639 369.603, 314.809 363.002 L 315.118 351 312.059 351 L 309 351 309 376 L 309 401 312 401 L 315 401 315 392.485 C 315 384.250, 315.108 383.853, 318.294 380.377 L 321.588 376.782 329.044 386.530 C 340.672 401.732, 340.127 401.203, 343.770 400.831 L 347.005 400.500 339.868 391 C 335.943 385.775, 332.454 381.275, 332.115 381 C 331.505 380.504, 328.015 375.583, 326.672 373.324 C 326.077 372.321, 332.531 364.779, 343.689 353.437 C 346.736 350.341, 345.852 349.619, 340.331 350.695 M 358.250 366.662 C 354.010 368.163, 353.271 369.301, 354.883 371.844 C 355.587 372.955, 356.270 372.912, 358.818 371.594 C 362.928 369.469, 369.228 369.554, 371.967 371.772 C 373.365 372.904, 374.218 374.800, 374.328 377.022 L 374.500 380.500 366.448 381 C 357.492 381.556, 353.563 383.389, 351.889 387.792 C 350.455 391.565, 351.580 396.257, 354.598 399.090 C 358.169 402.441, 367.490 402.492, 371.963 399.186 C 374.944 396.981, 375 396.977, 375 398.970 C 375 400.469, 375.654 401, 377.500 401 L 380 401 380 387.968 C 380 373.133, 378.871 369.019, 374.128 366.566 C 370.389 364.633, 363.873 364.672, 358.250 366.662 M 394.750 365.749 C 393.165 366.109, 393 367.795, 393 383.573 L 393 401 395.750 400.997 L 398.500 400.994 398.500 389.200 C 398.500 374.818, 399.411 372.848, 406.955 370.915 C 411.187 369.830, 412 369.249, 412 367.311 C 412 365.454, 411.457 365, 409.235 365 C 407.715 365, 404.791 365.900, 402.739 367 C 398.287 369.386, 398 369.420, 398 367.559 C 398 365.776, 397.025 365.233, 394.750 365.749 M 426.500 366.914 C 415.012 372.283, 413.566 392.508, 424.207 398.979 C 430.318 402.696, 439.405 402.401, 445.692 398.283 C 447.868 396.856, 447.934 396.585, 446.493 394.992 C 445.002 393.345, 444.732 393.352, 441.249 395.128 C 435.356 398.132, 430.425 397.625, 426.400 393.600 C 424.277 391.477, 423 389.224, 423 387.600 L 423 385 436.500 385 L 450 385 450 380.368 C 450 368.654, 437.764 361.649, 426.500 366.914 M 468.001 366.069 C 462.266 368.481, 458.617 373.704, 457.510 381.084 C 455.640 393.557, 464.974 403.108, 477.504 401.543 C 482.646 400.900, 489 397.872, 489 396.064 C 489 393.753, 485.631 393.254, 482.583 395.113 C 476.404 398.880, 466.900 396.399, 464.377 390.360 C 463.620 388.547, 463 386.600, 463 386.032 C 463 385.372, 468.043 385, 477 385 C 490.980 385, 491 384.997, 491 382.678 C 491 377.817, 487.818 370.963, 484.324 368.298 C 480.447 365.341, 472.358 364.236, 468.001 366.069 M 511.250 366.648 C 509.462 367.529, 508 368.644, 508 369.125 C 508 369.606, 507.520 370, 506.933 370 C 506.320 370, 506.136 369.147, 506.500 368 C 507.041 366.297, 506.680 366, 504.067 366 L 501 366 501 383.500 L 501 401 503.500 401 C 505.995 401, 506 400.982, 506.006 391.250 C 506.015 375.456, 508.263 371, 516.223 371 C 519.753 371, 520 370.804, 520 368 C 520 365.388, 519.644 365.003, 517.250 365.023 C 515.737 365.035, 513.038 365.767, 511.250 366.648 M 542.484 367.750 C 542.868 368.712, 544.466 372.950, 546.035 377.166 C 547.604 381.382, 550.554 388.476, 552.589 392.930 L 556.291 401.028 554.461 405.087 C 552.315 409.846, 548.690 413, 545.365 413 C 543.654 413, 543 413.562, 543 415.031 C 543 417.797, 545.390 418.499, 550.052 417.102 C 555.020 415.614, 556.738 412.732, 566.927 388.791 C 577.159 364.749, 576.814 366, 573.202 366 C 570.354 366, 570.114 366.405, 564.894 380 C 561.937 387.700, 559.235 394, 558.889 394 C 558.544 394, 555.840 387.703, 552.880 380.007 C 547.704 366.543, 547.392 366.013, 544.643 366.007 C 542.322 366.001, 541.917 366.328, 542.484 367.750 M 426.535 373.104 C 424.335 375.035, 423 377.112, 423 378.604 C 423 380.987, 423.060 381, 434 381 C 446.106 381, 446.480 380.763, 443.490 374.980 C 440.363 368.934, 432.300 368.042, 426.535 373.104 M 468.763 371.565 C 466.193 372.959, 463 377.606, 463 379.950 C 463 380.620, 466.986 381, 474 381 C 483.268 381, 485 380.756, 485 379.450 C 485 376.993, 482.160 372.156, 480.055 371.030 C 477.327 369.569, 471.973 369.823, 468.763 371.565 M 188 397.837 L 188 413.930 191.104 417.465 L 194.207 421 203.048 421 C 210.850 421, 212.205 420.728, 214.583 418.683 C 216.971 416.628, 217.334 415.479, 217.778 408.559 L 218.279 400.752 210.670 393.505 C 202.482 385.706, 198.744 383.462, 192.187 382.414 L 188 381.744 188 397.837 M 361.400 385.404 C 353.826 388.759, 356.224 397, 364.773 397 C 370.337 397, 373.780 393.893, 374.193 388.500 L 374.500 384.500 369.500 384.266 C 366.750 384.137, 363.105 384.649, 361.400 385.404" stroke="none" fill="#2c4d93" fill-rule="evenodd"/></svg>
