<?xml version="1.0" encoding="UTF-8"?>
<svg width="200" height="33" viewBox="0 0 200 33" fill="none" xmlns="http://www.w3.org/2000/svg">
  <!-- K symbol -->
  <g fill="none" stroke="#1E3A8A" stroke-width="3" stroke-linecap="round">
    <line x1="15" y1="5" x2="15" y2="28"/>
    <line x1="15" y1="16.5" x2="25" y2="5"/>
    <line x1="15" y1="16.5" x2="25" y2="28"/>
  </g>
  <!-- Text -->
  <path fill="#1E3A8A" d="M40 22V10h2v5l4-5h2.5l-4 5 4 7H46l-3-5.5-1 1.2V22h-2z"/>
  <path fill="#1E3A8A" d="M50 22V10h7v2h-5v3h4v2h-4v3h5v2h-7z"/>
  <path fill="#1E3A8A" d="M64 22V12h-3v-2h8v2h-3v10h-2z"/>
  <path fill="#1E3A8A" d="M71 22V10h7v2h-5v3h4v2h-4v3h5v2h-7z"/>
  <path fill="#1E3A8A" d="M85 22V12h-3v-2h8v2h-3v10h-2z"/>
  <path fill="#1E3A8A" d="M92 22V10h7v2h-5v3h4v2h-4v3h5v2h-7z"/>
  <path fill="#1E3A8A" d="M106 22V12h-3v-2h8v2h-3v10h-2z"/>
  <path fill="#1E3A8A" d="M115 22l-3-12h2l2 8 2-8h2l2 8 2-8h2l-3 12h-2l-2-8-2 8h-2z"/>
</svg>
